<svg width="30" height="30" viewBox="0 0 30 30" fill="none" xmlns="http://www.w3.org/2000/svg">
<path d="M26.1176 1.76465H23.4706V4.41171C23.4706 4.94112 23.0294 5.29406 22.5882 5.29406C22.147 5.29406 21.7059 4.94112 21.7059 4.41171V1.76465H7.58821V4.41171C7.58821 4.94112 7.14703 5.29406 6.70585 5.29406C6.26468 5.29406 5.8235 4.94112 5.8235 4.41171V1.76465H3.17644C1.85291 1.76465 0.882324 2.91171 0.882324 4.41171V7.58818H29.1176V4.41171C29.1176 2.91171 27.5294 1.76465 26.1176 1.76465ZM0.882324 9.44112V25.5882C0.882324 27.1764 1.85291 28.2352 3.26468 28.2352H26.2059C27.6176 28.2352 29.2059 27.0882 29.2059 25.5882V9.44112H0.882324ZM8.73527 24.2646H6.61762C6.26468 24.2646 5.91174 23.9999 5.91174 23.5588V21.3529C5.91174 20.9999 6.17644 20.647 6.61762 20.647H8.8235C9.17644 20.647 9.52938 20.9117 9.52938 21.3529V23.5588C9.44115 23.9999 9.17644 24.2646 8.73527 24.2646ZM8.73527 16.3235H6.61762C6.26468 16.3235 5.91174 16.0588 5.91174 15.6176V13.4117C5.91174 13.0588 6.17644 12.7058 6.61762 12.7058H8.8235C9.17644 12.7058 9.52938 12.9705 9.52938 13.4117V15.6176C9.44115 16.0588 9.17644 16.3235 8.73527 16.3235ZM15.7941 24.2646H13.5882C13.2353 24.2646 12.8823 23.9999 12.8823 23.5588V21.3529C12.8823 20.9999 13.147 20.647 13.5882 20.647H15.7941C16.147 20.647 16.5 20.9117 16.5 21.3529V23.5588C16.5 23.9999 16.2353 24.2646 15.7941 24.2646ZM15.7941 16.3235H13.5882C13.2353 16.3235 12.8823 16.0588 12.8823 15.6176V13.4117C12.8823 13.0588 13.147 12.7058 13.5882 12.7058H15.7941C16.147 12.7058 16.5 12.9705 16.5 13.4117V15.6176C16.5 16.0588 16.2353 16.3235 15.7941 16.3235ZM22.8529 24.2646H20.647C20.2941 24.2646 19.9411 23.9999 19.9411 23.5588V21.3529C19.9411 20.9999 20.2059 20.647 20.647 20.647H22.8529C23.2059 20.647 23.5588 20.9117 23.5588 21.3529V23.5588C23.5588 23.9999 23.2941 24.2646 22.8529 24.2646ZM22.8529 16.3235H20.647C20.2941 16.3235 19.9411 16.0588 19.9411 15.6176V13.4117C19.9411 13.0588 20.2059 12.7058 20.647 12.7058H22.8529C23.2059 12.7058 23.5588 12.9705 23.5588 13.4117V15.6176C23.5588 16.0588 23.2941 16.3235 22.8529 16.3235Z" fill="white"/>
</svg>