<svg xmlns="http://www.w3.org/2000/svg" xmlns:xlink="http://www.w3.org/1999/xlink" width="30" height="30" viewBox="0 0 30 30"><defs><clipPath id="a"><circle cx="15" cy="15" r="15" transform="translate(824 10704.371)" fill="#2867b2"/></clipPath><radialGradient id="b" cx="0.291" cy="0.998" r="1.01" gradientTransform="translate(0.001)" gradientUnits="objectBoundingBox"><stop offset="0" stop-color="#ffd676"/><stop offset="0.246" stop-color="#f2a454"/><stop offset="0.379" stop-color="#f05c3c"/><stop offset="0.7" stop-color="#c22f86"/><stop offset="0.957" stop-color="#6665ad"/><stop offset="0.985" stop-color="#5c6cb2"/></radialGradient></defs><g transform="translate(-824 -10704.371)"><g clip-path="url(#a)"><g transform="translate(824 10704.372)"><path d="M546.556,74.445a.694.694,0,0,1-.687.694h-1.785a.694.694,0,0,1-.687-.694V72.674a.694.694,0,0,1,.687-.694h1.785a.694.694,0,0,1,.687.694Z" transform="translate(-532.207 -59.676)" fill="url(#b)"/><g transform="translate(0 0)"><rect width="2.122" height="2.185" rx="1.061" transform="translate(11.708 12.795)" fill="none" stroke="#fff" stroke-miterlimit="10" stroke-width="2"/><circle cx="0.146" cy="0.146" r="0.146" transform="translate(13.265 13.094)" fill="#fff"/><g transform="translate(0 0)"><path d="M573.46,95.412a6.557,6.557,0,0,1-6.544,6.572H549.937a6.556,6.556,0,0,1-6.544-6.572V78.557a6.556,6.556,0,0,1,6.544-6.572h16.982a6.556,6.556,0,0,1,6.543,6.572Z" transform="translate(-543.393 -71.985)" fill="url(#b)"/><g transform="translate(4.836 4.567)"><g transform="translate(0 0)"><path d="M610.464,141.43h-8.117a6.147,6.147,0,0,1-6.138-6.138v-8.658a6.147,6.147,0,0,1,6.138-6.134h8.115a6.147,6.147,0,0,1,6.138,6.138V135.3a6.147,6.147,0,0,1-6.136,6.134Zm-8.117-18.718a3.926,3.926,0,0,0-3.921,3.921v8.658a3.926,3.926,0,0,0,3.921,3.921h8.115a3.926,3.926,0,0,0,3.921-3.921v-8.658a3.926,3.926,0,0,0-3.921-3.921Z" transform="translate(-596.209 -120.5)" fill="#fff"/></g><g transform="translate(4.381 4.617)"><path d="M671.3,205.234a5.823,5.823,0,0,1-5.817-5.817,5.91,5.91,0,0,1,1.785-4.217,5.567,5.567,0,0,1,4.074-1.6,5.993,5.993,0,0,1,4.326,1.771,5.634,5.634,0,0,1,1.451,4.075h0a5.949,5.949,0,0,1-1.719,4.079A5.73,5.73,0,0,1,671.3,205.234Zm-.123-8.923a2.891,2.891,0,0,0-2.024.836,3.187,3.187,0,0,0-.96,2.273,3.108,3.108,0,0,0,6.215-.03c.042-1.9-1.105-3.019-3.147-3.073Z" transform="translate(-665.483 -193.598)" fill="#fff"/></g><g transform="translate(14.442 3.666)"><circle cx="1.251" cy="1.251" r="1.251" transform="translate(0 0)" fill="#fff"/></g></g></g></g></g></g></g></svg>