<svg id="mail-icon" xmlns="http://www.w3.org/2000/svg" width="27.492" height="18.012" viewBox="0 0 27.492 18.012">
  <path id="Path_58" data-name="Path 58" d="M25.433,88.276H2.059A2.059,2.059,0,0,0,0,90.335v13.894a2.059,2.059,0,0,0,2.059,2.059H25.433a2.059,2.059,0,0,0,2.059-2.059V90.335A2.059,2.059,0,0,0,25.433,88.276Z" transform="translate(0 -88.276)" fill="#fff" opacity="0"/>
  <g id="_712040" data-name="712040" transform="translate(1.573)">
    <g id="Group_45" data-name="Group 45" transform="translate(0 5.08)">
      <g id="Group_44" data-name="Group 44">
        <path id="Path_104" data-name="Path 104" d="M12.932,154.214a1.39,1.39,0,0,1-1.443,0L0,147.2v9.324a3.609,3.609,0,0,0,3.608,3.608H20.841a3.609,3.609,0,0,0,3.608-3.608V147.2Z" transform="translate(0 -147.2)" fill="#4842a8"/>
      </g>
    </g>
    <g id="Group_47" data-name="Group 47" transform="translate(0.115 0)">
      <g id="Group_46" data-name="Group 46">
        <path id="Path_105" data-name="Path 105" d="M22.774,57.088H5.541a3.587,3.587,0,0,0-3.493,2.829l12.124,7.39,12.095-7.39A3.587,3.587,0,0,0,22.774,57.088Z" transform="translate(-2.048 -57.088)" fill="#4842a8"/>
      </g>
    </g>
  </g>
</svg>
