<svg id="skype-icon" xmlns="http://www.w3.org/2000/svg" width="27.492" height="18.012" viewBox="0 0 27.492 18.012">
  <path id="_174869" data-name="174869" d="M19.8,36.047a2.651,2.651,0,0,1-.478-1.564s0-.006,0-.01a9.009,9.009,0,0,0-12.1-8.459,2.656,2.656,0,0,1-1.63.077A4.4,4.4,0,0,0,.833,32.9a2.65,2.65,0,0,1,.478,1.564v.01a9.009,9.009,0,0,0,12.1,8.459,2.655,2.655,0,0,1,1.63-.077A4.4,4.4,0,0,0,19.8,36.047Zm-9.155-3.188c1.816.432,4.56,1.084,4.56,4.107a3.294,3.294,0,0,1-2.065,3.2,7.5,7.5,0,0,1-2.952.464,6.515,6.515,0,0,1-4.722-2.309,1.355,1.355,0,0,1,2.118-1.689,4.018,4.018,0,0,0,2.6,1.289c1.835.058,2.254-.488,2.308-.954.066-.569-.44-.987-2.478-1.471-1.727-.411-4.338-1.032-4.338-3.815,0-.867.353-3.7,4.89-3.7A6.134,6.134,0,0,1,15.2,30.336a1.355,1.355,0,0,1-2.177,1.613,4.069,4.069,0,0,0-2.45-1.256c-1.1-.1-2.181.291-2.181.876C8.391,32.189,8.7,32.4,10.647,32.859Z" transform="translate(3.146 -25.468)" fill="#00aaf2"/>
  <path id="Path_106" data-name="Path 106" d="M25.433,88.276H2.059A2.059,2.059,0,0,0,0,90.335v13.894a2.059,2.059,0,0,0,2.059,2.059H25.433a2.059,2.059,0,0,0,2.059-2.059V90.335A2.059,2.059,0,0,0,25.433,88.276Z" transform="translate(0 -88.276)" fill="#fff" opacity="0"/>
</svg>
