<svg width="514" height="517" viewBox="0 0 514 517" fill="none" xmlns="http://www.w3.org/2000/svg">
<path d="M11.7656 502.27L46.4127 375.584C25.0376 338.507 13.797 296.442 13.8105 253.361C13.8665 118.564 123.418 8.89746 258.022 8.89746C323.352 8.927 384.669 34.3875 430.77 80.5975C476.881 126.807 502.26 188.23 502.234 253.553C502.178 388.353 392.619 498.03 258.032 498.03C258.039 498.03 258.022 498.03 258.032 498.03H257.923C217.053 498.016 176.895 487.742 141.227 468.276L11.7656 502.27Z" fill="url(#paint0_linear_1191_2519)"/>
<path fill-rule="evenodd" clip-rule="evenodd" d="M194.836 147.415C190.102 136.874 185.117 136.663 180.612 136.478C176.928 136.32 172.71 136.33 168.499 136.33C164.285 136.33 157.437 137.916 151.645 144.25C145.85 150.584 129.52 165.895 129.52 197.037C129.52 228.182 152.172 258.275 155.329 262.502C158.49 266.722 199.057 332.672 263.304 358.043C316.698 379.129 327.564 374.935 339.153 373.879C350.743 372.824 376.549 358.571 381.817 343.79C387.086 329.012 387.086 316.344 385.505 313.696C383.925 311.059 379.71 309.476 373.389 306.311C367.067 303.146 335.993 287.83 330.198 285.72C324.403 283.61 320.189 282.555 315.974 288.892C311.76 295.223 299.653 309.476 295.965 313.696C292.278 317.926 288.59 318.454 282.269 315.289C275.947 312.114 255.589 305.437 231.439 283.873C212.649 267.097 199.962 246.378 196.275 240.041C192.587 233.711 195.88 230.282 199.05 227.126C201.888 224.29 205.372 219.737 208.533 216.041C211.687 212.345 212.741 209.707 214.848 205.487C216.955 201.259 215.901 197.564 214.321 194.398C212.741 191.233 200.456 159.931 194.836 147.415V147.415Z" fill="white"/>
<path d="M437.008 74.3164C389.243 26.4516 325.731 0.0778161 258.064 0.0478516C118.623 0.0478516 5.14649 113.648 5.09044 253.279C5.074 297.913 16.7197 341.481 38.855 379.886L2.9668 511.113L137.07 475.899C174.019 496.077 215.62 506.711 257.955 506.727H258.062H258.064C397.481 506.727 510.974 393.107 511.033 253.483C511.057 185.813 484.766 122.184 437.008 74.3164ZM258.064 463.957H257.981C220.246 463.937 183.241 453.792 150.965 434.613L143.283 430.052L63.7036 450.947L84.9501 373.276L79.9455 365.313C58.8966 331.798 47.7845 293.066 47.8009 253.296C47.8469 137.239 142.164 42.822 258.143 42.822C314.307 42.8452 367.092 64.7678 406.793 104.551C446.491 144.335 468.336 197.221 468.32 253.467C468.27 369.527 373.95 463.957 258.064 463.957Z" fill="white"/>
<defs>
<linearGradient id="paint0_linear_1191_2519" x1="257" y1="502.27" x2="257" y2="8.89828" gradientUnits="userSpaceOnUse">
<stop stop-color="#20B038"/>
<stop offset="1" stop-color="#60D66A"/>
</linearGradient>
</defs>
</svg>